<svg width="29" height="27" viewBox="0 0 29 27" fill="none" xmlns="http://www.w3.org/2000/svg">
<path d="M15.0307 22.3913C15.8967 21.2234 16.3139 19.783 16.2062 18.333C16.0984 16.883 15.4729 15.5201 14.4439 14.493C13.1584 13.1973 12.3807 11.4832 12.2522 9.66255C12.1237 7.8419 12.653 6.03562 13.7438 4.57224L15.3136 2.47921C15.2075 2.47214 15.1085 2.45799 14.9954 2.45799C10.3851 2.45799 6.65154 7.57745 6.63739 13.899C6.67275 19.2942 9.37389 23.8055 13.065 25.0076L15.0307 22.3913Z" fill="#9F5B39"/>
<path d="M14.8753 13.0968C16.161 14.3917 16.94 16.1046 17.0711 17.9247C17.2021 19.7449 16.6765 21.5517 15.5895 23.0175L14.0975 25.0044L14.3238 25.0186C18.9341 25.0186 22.6747 19.9062 22.6888 13.5847C22.6959 8.26015 20.016 3.71345 16.3673 2.53966L14.345 5.2408C13.4813 6.39807 13.06 7.8261 13.1573 9.26686C13.2545 10.7076 13.8639 12.0661 14.8753 13.0968Z" fill="#9F5B39"/>
</svg>
