<svg width="28" height="25" viewBox="0 0 28 25" fill="none" xmlns="http://www.w3.org/2000/svg">
<path d="M2.08333 25C1.49306 25 0.998611 24.8 0.6 24.4C0.2 24.0014 0 23.5069 0 22.9167C0 22.3264 0.2 21.8319 0.6 21.4333C0.998611 21.0333 1.49306 20.8333 2.08333 20.8333H25C25.5903 20.8333 26.0854 21.0333 26.4854 21.4333C26.884 21.8319 27.0833 22.3264 27.0833 22.9167C27.0833 23.5069 26.884 24.0014 26.4854 24.4C26.0854 24.8 25.5903 25 25 25H2.08333ZM2.08333 14.5833C1.49306 14.5833 0.998611 14.3833 0.6 13.9833C0.2 13.5847 0 13.0903 0 12.5C0 11.9097 0.2 11.4146 0.6 11.0146C0.998611 10.616 1.49306 10.4167 2.08333 10.4167H18.75C19.3403 10.4167 19.8354 10.616 20.2354 11.0146C20.634 11.4146 20.8333 11.9097 20.8333 12.5C20.8333 13.0903 20.634 13.5847 20.2354 13.9833C19.8354 14.3833 19.3403 14.5833 18.75 14.5833H2.08333ZM2.08333 4.16667C1.49306 4.16667 0.998611 3.96736 0.6 3.56875C0.2 3.16875 0 2.67361 0 2.08333C0 1.49306 0.2 0.997917 0.6 0.597917C0.998611 0.199306 1.49306 0 2.08333 0H25C25.5903 0 26.0854 0.199306 26.4854 0.597917C26.884 0.997917 27.0833 1.49306 27.0833 2.08333C27.0833 2.67361 26.884 3.16875 26.4854 3.56875C26.0854 3.96736 25.5903 4.16667 25 4.16667H2.08333Z" fill="black"/>
</svg>
